<svg xmlns="http://www.w3.org/2000/svg" width="16" height="16" viewBox="0 0 1024 1024">
  <g transform="translate(0,1024) scale(0.1,-0.1)" fill="#6E6E6E">
    <path d="M3726 8194 c-946 -128 -1692 -902 -1843 -1909 -28 -190 -25 -594 5 -785 28 -173 75 -361 132 -524 66 -191 43 -197 209 52 157 235 304 444 452 645 l95 128 2 114 c11 646 425 1186 1002 1311 127 27 379 25 519 -5 376 -80 810 -371 1441 -963 478 -449 828 -853 1190 -1373 106 -153 97 -145 121 -115 197 248 386 683 416 961 l6 56 -118 149 c-486 613 -1293 1398 -1833 1783 -390 278 -777 436 -1177 481 -126 14 -500 11 -619 -6z"/>
    <path d="M6295 8204 c-330 -33 -603 -101 -830 -208 l-90 -42 95 -64 c214 -143 484 -358 705 -559 l100 -91 81 6 c174 14 378 -27 549 -110 346 -167 579 -481 671 -906 27 -121 27 -458 1 -580 -133 -625 -468 -1108 -1032 -1490 -1003 -678 -2152 -511 -3054 443 -44 46 -57 55 -66 45 -7 -7 -137 -195 -290 -417 l-278 -405 54 -50 c220 -203 516 -427 709 -538 792 -454 1563 -581 2360 -387 1372 333 2399 1452 2551 2779 16 145 14 488 -5 631 -129 998 -852 1782 -1771 1924 -98 15 -381 27 -460 19z"/>
    <path d="M4030 7004 c-178 -155 -552 -530 -721 -724 -340 -389 -562 -691 -1092 -1485 -165 -247 -372 -556 -460 -685 -278 -408 -766 -1120 -858 -1252 -120 -171 -121 -162 33 -270 130 -91 522 -353 573 -382 57 -33 58 -31 427 496 190 271 415 592 500 713 85 121 264 380 398 575 750 1094 896 1294 1188 1630 275 316 767 782 1045 990 25 19 47 38 47 41 0 15 -300 221 -434 298 -152 86 -328 150 -458 166 l-53 6 -135 -117z"/>
    <path d="M8257 4424 c-150 -262 -322 -503 -471 -661 l-87 -92 114 -168 c276 -404 384 -561 567 -826 107 -156 218 -317 245 -360 74 -114 66 -116 370 88 385 259 459 315 463 350 2 25 -33 84 -199 330 -111 165 -366 545 -567 845 -200 300 -370 551 -377 559 -11 11 -21 -1 -58 -65z"/>
  </g>
</svg>
